<svg width="160" height="35" viewBox="0 0 160 35" fill="none" xmlns="http://www.w3.org/2000/svg">
<path d="M0 10.4211C0 5.77023 3.77023 2 8.42105 2H23.5789C28.2298 2 32 5.77023 32 10.4211V25.5789C32 30.2298 28.2298 34 23.5789 34H8.42105C3.77023 34 0 30.2298 0 25.5789V10.4211Z" fill="#465FFF"/>
<g filter="url(#filter0_d_23_56)">
<path d="M8.42383 9.68422C8.42383 8.75405 9.17787 8 10.108 8C11.0382 8 11.7922 8.75405 11.7922 9.68422V24.8421C11.7922 25.7723 11.0382 26.5263 10.108 26.5263C9.17787 26.5263 8.42383 25.7723 8.42383 24.8421V9.68422Z" fill="white"/>
</g>
<g filter="url(#filter1_d_23_56)">
<path d="M14.7422 13.6842C14.7422 12.754 15.4962 12 16.4264 12C17.3566 12 18.1106 12.754 18.1106 13.6842V22.1052C18.1106 23.0354 17.3566 23.7894 16.4264 23.7894C15.4962 23.7894 14.7422 23.0354 14.7422 22.1052V13.6842Z" fill="white" fill-opacity="0.9"/>
</g>
<g filter="url(#filter2_d_23_56)">
<path d="M21.0547 11.6842C21.0547 10.7541 21.8087 10 22.7389 10C23.6691 10 24.4231 10.7541 24.4231 11.6842V24.3158C24.4231 25.246 23.6691 26 22.7389 26C21.8087 26 21.0547 25.246 21.0547 24.3158V11.6842Z" fill="white" fill-opacity="0.7"/>
</g>
<path d="M42.824 9.2H46.328V26H42.824V9.2ZM48.536 26H45.032V22.88H48.416C49.152 22.88 49.848 22.784 50.504 22.592C51.16 22.384 51.736 22.064 52.232 21.632C52.728 21.2 53.112 20.656 53.384 20C53.672 19.328 53.816 18.528 53.816 17.6C53.816 16.672 53.672 15.88 53.384 15.224C53.112 14.552 52.728 14 52.232 13.568C51.736 13.136 51.16 12.824 50.504 12.632C49.848 12.424 49.152 12.32 48.416 12.32H45.032V9.2H48.536C50.296 9.2 51.832 9.544 53.144 10.232C54.472 10.92 55.504 11.896 56.24 13.16C56.976 14.408 57.344 15.888 57.344 17.6C57.344 19.312 56.976 20.8 56.24 22.064C55.504 23.312 54.472 24.28 53.144 24.968C51.832 25.656 50.296 26 48.536 26ZM61.9237 22.568C61.9237 22.888 62.0037 23.168 62.1637 23.408C62.3237 23.632 62.5397 23.808 62.8117 23.936C63.0997 24.048 63.4117 24.104 63.7477 24.104C64.2277 24.104 64.6597 24.008 65.0437 23.816C65.4277 23.608 65.7397 23.32 65.9797 22.952C66.2197 22.568 66.3397 22.112 66.3397 21.584L66.7237 23.024C66.7237 23.728 66.5237 24.32 66.1237 24.8C65.7397 25.28 65.2357 25.64 64.6117 25.88C64.0037 26.12 63.3637 26.24 62.6917 26.24C62.0037 26.24 61.3637 26.104 60.7717 25.832C60.1797 25.56 59.6997 25.168 59.3317 24.656C58.9797 24.128 58.8037 23.488 58.8037 22.736C58.8037 21.664 59.1797 20.816 59.9317 20.192C60.6837 19.568 61.7477 19.256 63.1237 19.256C63.8277 19.256 64.4437 19.328 64.9717 19.472C65.5157 19.616 65.9717 19.792 66.3397 20C66.7077 20.208 66.9717 20.408 67.1317 20.6V22.04C66.6997 21.72 66.2117 21.48 65.6677 21.32C65.1397 21.16 64.5797 21.08 63.9877 21.08C63.5077 21.08 63.1157 21.144 62.8117 21.272C62.5077 21.384 62.2837 21.552 62.1397 21.776C61.9957 21.984 61.9237 22.248 61.9237 22.568ZM60.7237 18.08L59.5717 15.968C60.1477 15.664 60.8517 15.376 61.6837 15.104C62.5157 14.816 63.4437 14.672 64.4677 14.672C65.4117 14.672 66.2517 14.808 66.9877 15.08C67.7237 15.352 68.2997 15.752 68.7157 16.28C69.1317 16.792 69.3397 17.424 69.3397 18.176V26H66.3397V18.824C66.3397 18.52 66.2917 18.264 66.1957 18.056C66.0997 17.832 65.9477 17.648 65.7397 17.504C65.5477 17.36 65.3157 17.256 65.0437 17.192C64.7717 17.128 64.4677 17.096 64.1317 17.096C63.6197 17.096 63.1317 17.152 62.6677 17.264C62.2037 17.376 61.8037 17.512 61.4677 17.672C61.1317 17.832 60.8837 17.968 60.7237 18.08ZM72.7833 22.184C73.2473 22.616 73.6793 22.968 74.0793 23.24C74.4793 23.496 74.8553 23.688 75.2073 23.816C75.5753 23.944 75.9193 24.008 76.2393 24.008C76.6553 24.008 76.9753 23.92 77.1993 23.744C77.4233 23.552 77.5353 23.296 77.5353 22.976C77.5353 22.688 77.4393 22.448 77.2473 22.256C77.0713 22.048 76.8073 21.864 76.4553 21.704C76.1033 21.544 75.6553 21.376 75.1113 21.2C74.5993 21.008 74.1033 20.784 73.6233 20.528C73.1433 20.256 72.7433 19.904 72.4233 19.472C72.1193 19.024 71.9673 18.456 71.9673 17.768C71.9673 17.112 72.1433 16.56 72.4953 16.112C72.8473 15.648 73.3193 15.304 73.9113 15.08C74.5193 14.84 75.1913 14.72 75.9273 14.72C76.5513 14.72 77.1353 14.8 77.6793 14.96C78.2233 15.12 78.7273 15.336 79.1913 15.608C79.6553 15.864 80.0633 16.168 80.4153 16.52L79.0473 18.44C78.6473 18.008 78.1673 17.656 77.6073 17.384C77.0633 17.112 76.5273 16.976 75.9993 16.976C75.6473 16.976 75.3673 17.048 75.1593 17.192C74.9673 17.32 74.8713 17.52 74.8713 17.792C74.8713 18.032 74.9673 18.248 75.1593 18.44C75.3673 18.616 75.6553 18.776 76.0233 18.92C76.4073 19.064 76.8393 19.24 77.3193 19.448C77.9113 19.672 78.4553 19.928 78.9513 20.216C79.4633 20.488 79.8713 20.832 80.1753 21.248C80.4793 21.664 80.6313 22.208 80.6313 22.88C80.6313 23.984 80.2713 24.848 79.5513 25.472C78.8313 26.08 77.8393 26.384 76.5753 26.384C75.7913 26.384 75.0713 26.28 74.4153 26.072C73.7753 25.864 73.1913 25.592 72.6633 25.256C72.1513 24.904 71.6873 24.528 71.2713 24.128L72.7833 22.184ZM85.8982 7.28V26H82.7782V7.28H85.8982ZM89.9062 19.28C89.9062 18.544 89.7622 17.984 89.4742 17.6C89.2022 17.216 88.7382 17.024 88.0822 17.024C87.6502 17.024 87.2662 17.12 86.9302 17.312C86.5942 17.488 86.3382 17.744 86.1622 18.08C85.9862 18.416 85.8982 18.816 85.8982 19.28H85.2742C85.2742 18.4 85.4182 17.608 85.7062 16.904C86.0102 16.2 86.4582 15.64 87.0502 15.224C87.6422 14.808 88.3702 14.6 89.2342 14.6C90.0982 14.6 90.8102 14.76 91.3702 15.08C91.9302 15.4 92.3462 15.88 92.6182 16.52C92.8902 17.144 93.0262 17.912 93.0262 18.824V26H89.9062V19.28ZM99.1387 7.28V26H96.0187V7.28H99.1387ZM108.211 20.48C108.211 21.696 107.963 22.736 107.467 23.6C106.971 24.464 106.315 25.12 105.499 25.568C104.699 26.016 103.835 26.24 102.907 26.24C101.995 26.24 101.179 26.008 100.459 25.544C99.7547 25.08 99.1947 24.416 98.7787 23.552C98.3627 22.688 98.1547 21.664 98.1547 20.48C98.1547 19.28 98.3627 18.256 98.7787 17.408C99.1947 16.544 99.7547 15.88 100.459 15.416C101.179 14.952 101.995 14.72 102.907 14.72C103.835 14.72 104.699 14.944 105.499 15.392C106.315 15.84 106.971 16.496 107.467 17.36C107.963 18.208 108.211 19.248 108.211 20.48ZM104.995 20.48C104.995 19.824 104.859 19.256 104.587 18.776C104.315 18.296 103.947 17.928 103.483 17.672C103.035 17.416 102.539 17.288 101.995 17.288C101.531 17.288 101.075 17.416 100.627 17.672C100.195 17.912 99.8347 18.272 99.5467 18.752C99.2747 19.232 99.1387 19.808 99.1387 20.48C99.1387 21.152 99.2747 21.728 99.5467 22.208C99.8347 22.688 100.195 23.056 100.627 23.312C101.075 23.552 101.531 23.672 101.995 23.672C102.539 23.672 103.035 23.544 103.483 23.288C103.947 23.032 104.315 22.664 104.587 22.184C104.859 21.704 104.995 21.136 104.995 20.48ZM109.784 20.48C109.784 19.328 110.048 18.32 110.576 17.456C111.12 16.592 111.848 15.92 112.76 15.44C113.688 14.96 114.736 14.72 115.904 14.72C117.072 14.72 118.112 14.96 119.024 15.44C119.952 15.92 120.68 16.592 121.208 17.456C121.752 18.32 122.024 19.328 122.024 20.48C122.024 21.616 121.752 22.624 121.208 23.504C120.68 24.368 119.952 25.04 119.024 25.52C118.112 26 117.072 26.24 115.904 26.24C114.736 26.24 113.688 26 112.76 25.52C111.848 25.04 111.12 24.368 110.576 23.504C110.048 22.624 109.784 21.616 109.784 20.48ZM112.952 20.48C112.952 21.104 113.08 21.656 113.336 22.136C113.608 22.6 113.968 22.968 114.416 23.24C114.864 23.496 115.36 23.624 115.904 23.624C116.448 23.624 116.944 23.496 117.392 23.24C117.84 22.968 118.192 22.6 118.448 22.136C118.72 21.656 118.856 21.104 118.856 20.48C118.856 19.856 118.72 19.304 118.448 18.824C118.192 18.344 117.84 17.976 117.392 17.72C116.944 17.464 116.448 17.336 115.904 17.336C115.36 17.336 114.864 17.464 114.416 17.72C113.968 17.976 113.608 18.344 113.336 18.824C113.08 19.304 112.952 19.856 112.952 20.48ZM126.564 22.568C126.564 22.888 126.644 23.168 126.804 23.408C126.964 23.632 127.18 23.808 127.452 23.936C127.74 24.048 128.052 24.104 128.388 24.104C128.868 24.104 129.3 24.008 129.684 23.816C130.068 23.608 130.38 23.32 130.62 22.952C130.86 22.568 130.98 22.112 130.98 21.584L131.364 23.024C131.364 23.728 131.164 24.32 130.764 24.8C130.38 25.28 129.876 25.64 129.252 25.88C128.644 26.12 128.004 26.24 127.332 26.24C126.644 26.24 126.004 26.104 125.412 25.832C124.82 25.56 124.34 25.168 123.972 24.656C123.62 24.128 123.444 23.488 123.444 22.736C123.444 21.664 123.82 20.816 124.572 20.192C125.324 19.568 126.388 19.256 127.764 19.256C128.468 19.256 129.084 19.328 129.612 19.472C130.156 19.616 130.612 19.792 130.98 20C131.348 20.208 131.612 20.408 131.772 20.6V22.04C131.34 21.72 130.852 21.48 130.308 21.32C129.78 21.16 129.22 21.08 128.628 21.08C128.148 21.08 127.756 21.144 127.452 21.272C127.148 21.384 126.924 21.552 126.78 21.776C126.636 21.984 126.564 22.248 126.564 22.568ZM125.364 18.08L124.212 15.968C124.788 15.664 125.492 15.376 126.324 15.104C127.156 14.816 128.084 14.672 129.108 14.672C130.052 14.672 130.892 14.808 131.628 15.08C132.364 15.352 132.94 15.752 133.356 16.28C133.772 16.792 133.98 17.424 133.98 18.176V26H130.98V18.824C130.98 18.52 130.932 18.264 130.836 18.056C130.74 17.832 130.588 17.648 130.38 17.504C130.188 17.36 129.956 17.256 129.684 17.192C129.412 17.128 129.108 17.096 128.772 17.096C128.26 17.096 127.772 17.152 127.308 17.264C126.844 17.376 126.444 17.512 126.108 17.672C125.772 17.832 125.524 17.968 125.364 18.08ZM139.92 14.96V26H136.872V14.96H139.92ZM143.16 18.2C142.952 18.008 142.736 17.864 142.512 17.768C142.304 17.656 142.04 17.6 141.72 17.6C141.336 17.6 141.008 17.704 140.736 17.912C140.464 18.12 140.256 18.416 140.112 18.8C139.984 19.168 139.92 19.616 139.92 20.144L139.056 19.28C139.056 18.4 139.224 17.624 139.56 16.952C139.896 16.264 140.336 15.72 140.88 15.32C141.424 14.904 141.984 14.696 142.56 14.696C142.96 14.696 143.336 14.768 143.688 14.912C144.056 15.056 144.352 15.272 144.576 15.56L143.16 18.2ZM154.552 7.28H157.672V26H154.552V7.28ZM145.479 20.48C145.479 19.248 145.728 18.208 146.224 17.36C146.72 16.496 147.376 15.84 148.192 15.392C149.008 14.944 149.872 14.72 150.784 14.72C151.712 14.72 152.528 14.952 153.232 15.416C153.952 15.88 154.512 16.544 154.912 17.408C155.328 18.256 155.536 19.28 155.536 20.48C155.536 21.664 155.328 22.688 154.912 23.552C154.512 24.416 153.952 25.08 153.232 25.544C152.528 26.008 151.712 26.24 150.784 26.24C149.872 26.24 149.008 26.016 148.192 25.568C147.376 25.12 146.72 24.464 146.224 23.6C145.728 22.736 145.479 21.696 145.479 20.48ZM148.696 20.48C148.696 21.136 148.832 21.704 149.104 22.184C149.376 22.664 149.744 23.032 150.208 23.288C150.672 23.544 151.168 23.672 151.696 23.672C152.16 23.672 152.608 23.552 153.04 23.312C153.488 23.056 153.848 22.688 154.12 22.208C154.408 21.728 154.552 21.152 154.552 20.48C154.552 19.808 154.408 19.232 154.12 18.752C153.848 18.272 153.488 17.912 153.04 17.672C152.608 17.416 152.16 17.288 151.696 17.288C151.168 17.288 150.672 17.416 150.208 17.672C149.744 17.928 149.376 18.296 149.104 18.776C148.832 19.256 148.696 19.824 148.696 20.48Z" fill="#101828"/>
<defs>
<filter id="filter0_d_23_56" x="7.42383" y="7.5" width="5.36838" height="20.5263" filterUnits="userSpaceOnUse" color-interpolation-filters="sRGB">
<feFlood flood-opacity="0" result="BackgroundImageFix"/>
<feColorMatrix in="SourceAlpha" type="matrix" values="0 0 0 0 0 0 0 0 0 0 0 0 0 0 0 0 0 0 127 0" result="hardAlpha"/>
<feOffset dy="0.5"/>
<feGaussianBlur stdDeviation="0.5"/>
<feComposite in2="hardAlpha" operator="out"/>
<feColorMatrix type="matrix" values="0 0 0 0 0 0 0 0 0 0 0 0 0 0 0 0 0 0 0.12 0"/>
<feBlend mode="normal" in2="BackgroundImageFix" result="effect1_dropShadow_23_56"/>
<feBlend mode="normal" in="SourceGraphic" in2="effect1_dropShadow_23_56" result="shape"/>
</filter>
<filter id="filter1_d_23_56" x="13.7422" y="11.5" width="5.36839" height="13.7894" filterUnits="userSpaceOnUse" color-interpolation-filters="sRGB">
<feFlood flood-opacity="0" result="BackgroundImageFix"/>
<feColorMatrix in="SourceAlpha" type="matrix" values="0 0 0 0 0 0 0 0 0 0 0 0 0 0 0 0 0 0 127 0" result="hardAlpha"/>
<feOffset dy="0.5"/>
<feGaussianBlur stdDeviation="0.5"/>
<feComposite in2="hardAlpha" operator="out"/>
<feColorMatrix type="matrix" values="0 0 0 0 0 0 0 0 0 0 0 0 0 0 0 0 0 0 0.12 0"/>
<feBlend mode="normal" in2="BackgroundImageFix" result="effect1_dropShadow_23_56"/>
<feBlend mode="normal" in="SourceGraphic" in2="effect1_dropShadow_23_56" result="shape"/>
</filter>
<filter id="filter2_d_23_56" x="20.0547" y="9.5" width="5.36839" height="18" filterUnits="userSpaceOnUse" color-interpolation-filters="sRGB">
<feFlood flood-opacity="0" result="BackgroundImageFix"/>
<feColorMatrix in="SourceAlpha" type="matrix" values="0 0 0 0 0 0 0 0 0 0 0 0 0 0 0 0 0 0 127 0" result="hardAlpha"/>
<feOffset dy="0.5"/>
<feGaussianBlur stdDeviation="0.5"/>
<feComposite in2="hardAlpha" operator="out"/>
<feColorMatrix type="matrix" values="0 0 0 0 0 0 0 0 0 0 0 0 0 0 0 0 0 0 0.12 0"/>
<feBlend mode="normal" in2="BackgroundImageFix" result="effect1_dropShadow_23_56"/>
<feBlend mode="normal" in="SourceGraphic" in2="effect1_dropShadow_23_56" result="shape"/>
</filter>
</defs>
</svg>
